<svg width="18" height="18" viewBox="0 0 18 18" fill="none" xmlns="http://www.w3.org/2000/svg">
<g clip-path="url(#clip0_2_2565)">
<path opacity="0.3" d="M16.5061 6.74792L9.19257 1.5038C8.9591 1.34068 8.64396 1.33886 8.40785 1.5038L1.09434 6.74792C0.356262 7.27713 -0.445462 6.16139 0.293714 5.63136L7.61007 0.385244C7.61169 0.384076 7.6133 0.382943 7.61495 0.381775C8.32112 -0.115383 9.27112 -0.121222 9.98557 0.381775C9.98718 0.382908 9.98883 0.384076 9.99044 0.385244L17.3067 5.63136C18.0474 6.16246 17.2378 7.27259 16.5061 6.74792Z" fill="#029278"/>
<path d="M14.1585 17.5933H10.1741C9.79473 17.5933 9.48718 17.2857 9.48718 16.9063V14.1584C9.48718 13.7797 9.17901 13.4715 8.80021 13.4715C8.42142 13.4715 8.11325 13.7797 8.11325 14.1584V16.9063C8.11325 17.2857 7.80569 17.5933 7.42628 17.5933H3.44188C2.3055 17.5933 1.38098 16.6688 1.38098 15.5324V9.37053C1.38098 8.70225 1.70653 8.07354 2.25202 7.68781L7.60826 3.82129C7.61046 3.81967 7.61269 3.81809 7.61496 3.81651C8.32112 3.31949 9.27096 3.31362 9.98547 3.81651C9.9877 3.81809 9.98994 3.81967 9.99217 3.82129L15.3484 7.68784C15.8939 8.07357 16.2195 8.70229 16.2195 9.37057V15.5324C16.2194 16.6688 15.2949 17.5933 14.1585 17.5933ZM10.8611 16.2193H14.1585C14.5373 16.2193 14.8455 15.9112 14.8455 15.5324V9.37053C14.8455 9.14727 14.7365 8.93726 14.5539 8.80877C14.5517 8.80719 14.5495 8.80561 14.5472 8.80399L9.19196 4.93816C8.95835 4.77542 8.64393 4.77414 8.40847 4.93816L3.05319 8.80399C3.051 8.80557 3.04876 8.80719 3.0465 8.80877C2.86393 8.93726 2.75491 9.14727 2.75491 9.37053V15.5324C2.75491 15.9112 3.06309 16.2193 3.44188 16.2193H6.73932V14.1584C6.73932 13.0221 7.66384 12.0975 8.80021 12.0975C9.93659 12.0975 10.8611 13.0221 10.8611 14.1584V16.2193Z" fill="#029278"/>
</g>
<defs>
<clipPath id="clip0_2_2565">
<rect width="17.6" height="17.6" fill="white"/>
</clipPath>
</defs>
</svg>
