<svg width="64" height="64" viewBox="0 0 64 64" fill="none" xmlns="http://www.w3.org/2000/svg">
<circle cx="32" cy="32" r="31.5" fill="white" stroke="#00DEB6"/>
<circle cx="32" cy="32" r="28" fill="#0AC09F"/>
<path d="M40 51C40 49.741 40.5928 48.5554 41.6 47.8L49.6 41.8C51.0222 40.7333 52.9778 40.7333 54.4 41.8L62.4 47.8C63.4072 48.5554 64 49.741 64 51V64H40V51Z" fill="#029278"/>
<path d="M50.6667 55.3334C50.3934 55.3334 50.1667 55.56 50.1667 55.8334V56.8334C50.1667 57.1067 50.3934 57.3334 50.6667 57.3334C50.94 57.3334 51.1667 57.1067 51.1667 56.8334V55.8334C51.1667 55.56 50.94 55.3334 50.6667 55.3334Z" fill="white"/>
<path d="M58.6666 59.1667H58V51.6534C58 51.24 57.8133 50.8534 57.4866 50.6L52.82 46.9734C52.34 46.5934 51.66 46.5934 51.18 46.9734L46.5133 50.6C46.1866 50.8534 46 51.24 46 51.6467L45.9666 59.1667H45.3333C45.06 59.1667 44.8333 59.3867 44.8333 59.6667C44.8333 59.94 45.06 60.1667 45.3333 60.1667H58.6666C58.94 60.1667 59.1666 59.94 59.1666 59.6667C59.1666 59.3867 58.94 59.1667 58.6666 59.1667ZM51 49.5H53C53.2733 49.5 53.5 49.7267 53.5 50C53.5 50.2734 53.2733 50.5 53 50.5H51C50.7266 50.5 50.5 50.2734 50.5 50C50.5 49.7267 50.7266 49.5 51 49.5ZM55.3333 59.1667H48.6666V53.3334C48.6666 52.78 49.1133 52.3334 49.6666 52.3334H54.3333C54.8866 52.3334 55.3333 52.78 55.3333 53.3334V59.1667Z" fill="white"/>
<g clip-path="url(#clip0_1_1045)">
<g filter="url(#filter0_d_1_1045)">
<path d="M21.3334 26.6667V24C21.3334 23.2928 21.6143 22.6145 22.1144 22.1144C22.6145 21.6143 23.2928 21.3334 24 21.3334H26.6667" stroke="white" stroke-width="2" stroke-linecap="round" stroke-linejoin="round" shape-rendering="crispEdges"/>
</g>
<g filter="url(#filter1_d_1_1045)">
<path d="M21.3334 37.3334V40C21.3334 40.7073 21.6143 41.3856 22.1144 41.8857C22.6145 42.3858 23.2928 42.6667 24 42.6667H26.6667" stroke="white" stroke-width="2" stroke-linecap="round" stroke-linejoin="round" shape-rendering="crispEdges"/>
</g>
<path d="M37.3334 21.3334H40C40.7073 21.3334 41.3856 21.6143 41.8857 22.1144C42.3858 22.6145 42.6667 23.2928 42.6667 24V26.6667" stroke="white" stroke-width="2" stroke-linecap="round" stroke-linejoin="round"/>
<path d="M37.3334 42.6667H40C40.7073 42.6667 41.3856 42.3858 41.8857 41.8857C42.3858 41.3856 42.6667 40.7073 42.6667 40V37.3334" stroke="white" stroke-width="2" stroke-linecap="round" stroke-linejoin="round"/>
<path d="M32 40L27.3333 33.3333C26.8841 32.5213 26.6544 31.6062 26.6671 30.6784C26.6798 29.7505 26.9344 28.842 27.4057 28.0426C27.877 27.2433 28.5486 26.5807 29.3544 26.1204C30.1601 25.6601 31.072 25.418 32 25.418C32.9279 25.418 33.8398 25.6601 34.6455 26.1204C35.4513 26.5807 36.123 27.2433 36.5943 28.0426C37.0655 28.842 37.3201 29.7505 37.3328 30.6784C37.3455 31.6062 37.1159 32.5213 36.6666 33.3333L32 40Z" fill="white" stroke="white" stroke-width="2" stroke-linecap="round" stroke-linejoin="round"/>
<path d="M32 30.6666V30.68" stroke="#00DEB6" stroke-width="6" stroke-linecap="round" stroke-linejoin="round"/>
</g>
<defs>
<filter id="filter0_d_1_1045" x="18.3334" y="18.3334" width="15.3333" height="15.3334" filterUnits="userSpaceOnUse" color-interpolation-filters="sRGB">
<feFlood flood-opacity="0" result="BackgroundImageFix"/>
<feColorMatrix in="SourceAlpha" type="matrix" values="0 0 0 0 0 0 0 0 0 0 0 0 0 0 0 0 0 0 127 0" result="hardAlpha"/>
<feOffset dx="2" dy="2"/>
<feGaussianBlur stdDeviation="2"/>
<feComposite in2="hardAlpha" operator="out"/>
<feColorMatrix type="matrix" values="0 0 0 0 0.439216 0 0 0 0 0.396078 0 0 0 0 0.941176 0 0 0 0.1 0"/>
<feBlend mode="normal" in2="BackgroundImageFix" result="effect1_dropShadow_1_1045"/>
<feBlend mode="normal" in="SourceGraphic" in2="effect1_dropShadow_1_1045" result="shape"/>
</filter>
<filter id="filter1_d_1_1045" x="18.3334" y="34.3334" width="15.3333" height="15.3334" filterUnits="userSpaceOnUse" color-interpolation-filters="sRGB">
<feFlood flood-opacity="0" result="BackgroundImageFix"/>
<feColorMatrix in="SourceAlpha" type="matrix" values="0 0 0 0 0 0 0 0 0 0 0 0 0 0 0 0 0 0 127 0" result="hardAlpha"/>
<feOffset dx="2" dy="2"/>
<feGaussianBlur stdDeviation="2"/>
<feComposite in2="hardAlpha" operator="out"/>
<feColorMatrix type="matrix" values="0 0 0 0 0.439216 0 0 0 0 0.396078 0 0 0 0 0.941176 0 0 0 0.1 0"/>
<feBlend mode="normal" in2="BackgroundImageFix" result="effect1_dropShadow_1_1045"/>
<feBlend mode="normal" in="SourceGraphic" in2="effect1_dropShadow_1_1045" result="shape"/>
</filter>
<clipPath id="clip0_1_1045">
<rect width="32" height="32" fill="white" transform="translate(16 16)"/>
</clipPath>
</defs>
</svg>
