<svg width="64" height="64" viewBox="0 0 64 64" fill="none" xmlns="http://www.w3.org/2000/svg">
<circle cx="32" cy="32" r="31.5" fill="white" stroke="#00DEB6"/>
<circle cx="32" cy="32" r="28" fill="#0AC09F"/>
<path d="M22.6666 26.6667C20.4533 26.6667 18.6666 28.4533 18.6666 30.6667V41.3333C18.6666 43.5467 20.4533 45.3333 22.6666 45.3333H24.6666C26.1333 45.3333 27.3333 44.1333 27.3333 42.6667V29.3333C27.3333 27.8667 26.1333 26.6667 24.6666 26.6667H22.6666ZM24 38.6667C24 39.2133 23.5466 39.6667 23 39.6667C22.4533 39.6667 22 39.2133 22 38.6667V33.3333C22 32.7867 22.4533 32.3333 23 32.3333C23.5466 32.3333 24 32.7867 24 33.3333V38.6667Z" fill="white"/>
<path d="M41.3334 18.6667H33.3334C31.12 18.6667 29.3334 20.4533 29.3334 22.6667V41.3333C29.3334 43.5467 31.12 45.3333 33.3334 45.3333H34C34.3734 45.3333 34.6667 45.04 34.6667 44.6667V40C34.6667 39.2667 35.2667 38.6667 36 38.6667H38.6667C39.4 38.6667 40 39.2667 40 40V44.6667C40 45.04 40.2934 45.3333 40.6667 45.3333H41.3334C43.5467 45.3333 45.3334 43.5467 45.3334 41.3333V22.6667C45.3334 20.4533 43.5467 18.6667 41.3334 18.6667ZM35.6667 33.3333C35.6667 33.88 35.2134 34.3333 34.6667 34.3333C34.12 34.3333 33.6667 33.88 33.6667 33.3333V26.6667C33.6667 26.12 34.12 25.6667 34.6667 25.6667C35.2134 25.6667 35.6667 26.12 35.6667 26.6667V33.3333ZM41 33.3333C41 33.88 40.5467 34.3333 40 34.3333C39.4534 34.3333 39 33.88 39 33.3333V26.6667C39 26.12 39.4534 25.6667 40 25.6667C40.5467 25.6667 41 26.12 41 26.6667V33.3333Z" fill="white"/>
<path d="M40 48C40 43.5817 43.5817 40 48 40H56C60.4183 40 64 43.5817 64 48V56C64 60.4183 60.4183 64 56 64H48C43.5817 64 40 60.4183 40 56V48Z" fill="#029278"/>
<path d="M51.6667 58C55.1645 58 58 55.1645 58 51.6667C58 48.1689 55.1645 45.3333 51.6667 45.3333C48.1689 45.3333 45.3334 48.1689 45.3334 51.6667C45.3334 55.1645 48.1689 58 51.6667 58Z" stroke="white" stroke-width="2" stroke-linecap="round" stroke-linejoin="round"/>
<path d="M58.6667 58.6667L57.3334 57.3333" stroke="white" stroke-width="2" stroke-linecap="round" stroke-linejoin="round"/>
</svg>
