<svg width="20" height="16" viewBox="0 0 20 16" fill="none" xmlns="http://www.w3.org/2000/svg">
<path d="M5.98577 0.157102C5.91039 0.232479 5.91039 0.281475 5.91039 3.5491V6.86573L3.36262 6.87327L0.814849 6.88457L0.74324 6.97503C0.581177 7.17478 0.705551 7.35946 1.02214 7.38584L1.23696 7.40091V10.8231V14.2415L1.02214 14.2641C0.682938 14.298 0.671631 14.3244 0.671631 15.0668C0.671631 15.6359 0.679169 15.6925 0.747009 15.7603C0.822387 15.8357 0.871382 15.8357 10.32 15.8357C19.7686 15.8357 19.8176 15.8357 19.893 15.7603C19.9608 15.6925 19.9684 15.6359 19.9684 15.0668C19.9684 14.3244 19.9571 14.298 19.6216 14.2641L19.403 14.2415V10.8231V7.40091L19.6179 7.38584C19.9344 7.35946 20.0588 7.17478 19.8967 6.97503L19.8251 6.88457L17.2397 6.87327L14.6542 6.86573V3.5491C14.6542 0.281475 14.6542 0.232479 14.5788 0.157102C14.5035 0.0817242 14.4545 0.0817242 10.2823 0.0817242C6.11014 0.0817242 6.06115 0.0817242 5.98577 0.157102ZM14.1643 3.71871V6.86573H13.8816H13.5989L13.5914 4.09936C13.5801 1.43853 13.5763 1.32923 13.5085 1.25385C13.4369 1.1747 13.4105 1.1747 12.0311 1.1747H10.6253L10.5687 1.25762C10.516 1.333 10.5084 1.66466 10.5084 4.10313V6.86573H10.2823H10.0562V4.08806C10.0562 1.55913 10.0524 1.30661 9.9921 1.24254C9.93557 1.17847 9.84135 1.1747 8.53731 1.1747C7.28981 1.1747 7.13528 1.18224 7.07121 1.23877C7.00714 1.29531 7.00337 1.43476 7.00337 4.08429V6.86573H6.70186H6.40035V3.71871V0.57168H10.2823H14.1643V3.71871ZM9.56622 4.26519V6.86573H8.52977H7.49333V4.26519V1.66466H8.52977H9.56622V4.26519ZM13.0713 4.26519V6.86573H12.0348H10.9984V4.26519V1.66466H12.0348H13.0713V4.26519ZM2.59377 10.8231V14.2528H2.16034H1.72692V10.8231V7.39337H2.16034H2.59377V10.8231ZM4.25208 10.8231V14.2528H3.6679H3.08372V10.8231V7.39337H3.6679H4.25208V10.8231ZM5.91039 10.8231V14.2528H5.32621H4.74203V10.8231V7.39337H5.32621H5.91039V10.8231ZM7.5687 10.8231V14.2528H6.98453H6.40035V10.8231V7.39337H6.98453H7.5687V10.8231ZM9.22702 10.8231V14.2528H8.66168H8.09635V10.8231V7.39337H8.66168H9.22702V10.8231ZM10.923 10.8231V14.2528H10.3388H9.75466V10.8231V7.39337H10.3388H10.923V10.8231ZM12.5813 10.8231V14.2528H11.9972H11.413V10.8231V7.39337H11.9972H12.5813V10.8231ZM14.1643 10.8231V14.2528H13.6178H13.0713V10.8231V7.39337H13.6178H14.1643V10.8231ZM15.898 10.8231V14.2528H15.3138H14.7296V10.8231V7.39337H15.3138H15.898V10.8231ZM17.5563 10.8231V14.2528H16.9721H16.3879V10.8231V7.39337H16.9721H17.5563V10.8231ZM18.9131 10.8231V14.2528H18.4985H18.0839V10.8231V7.39337H18.4985H18.9131V10.8231ZM19.4784 15.0631V15.3457H10.32H1.16159V15.0631V14.7804H10.32H19.4784V15.0631Z" fill="#797979"/>
</svg>
