<svg width="16" height="16" viewBox="0 0 16 16" fill="none" xmlns="http://www.w3.org/2000/svg">
<g clip-path="url(#clip0_18_732)">
<path d="M0.319526 0.186234L0.230469 0.275291V0.864914C0.230469 1.61115 0.251965 1.66029 0.577486 1.66336H0.75253V4.82644C0.75253 8.35496 0.740246 8.14306 0.961355 8.20141C1.02277 8.21984 1.11797 8.23519 1.17325 8.23519C1.27766 8.23519 1.27766 8.22905 1.32066 8.63441C1.34522 8.84631 1.44656 9.23632 1.53869 9.47278C1.7813 10.087 2.15288 10.523 3.07417 11.2662C3.55631 11.6562 3.92789 12.0217 4.09679 12.2673C4.56665 12.9583 4.68949 13.9318 4.46838 15.2216C4.40389 15.6024 4.4131 15.6853 4.53594 15.7713C4.59736 15.8143 5.00579 15.8204 8.85062 15.8204C11.4609 15.8204 13.1223 15.8082 13.1714 15.7897C13.2605 15.7559 13.3219 15.6546 13.3189 15.544C13.3189 15.5011 13.2482 15.3352 13.1622 15.1755C12.7262 14.3433 12.588 13.7138 12.5542 12.381L12.5358 11.6286L12.7016 11.5702C13.6812 11.2263 14.5964 10.4309 15.0417 9.54034C15.2505 9.11962 15.3242 8.87395 15.4163 8.29047C15.4317 8.19834 15.4562 8.16456 15.5729 8.097C15.9445 7.87896 16.0612 7.37225 15.8217 7.01602C15.6958 6.8287 15.5177 6.70893 15.3119 6.66901C15.0693 6.62294 6.04685 6.62601 5.91479 6.67208C5.75818 6.72736 5.72747 6.82563 5.72747 7.2832V7.68242H5.46644H5.20541V5.85828V4.03413L5.44494 4.02185C5.71211 4.00957 5.86873 3.94815 6.02228 3.79153C6.16354 3.65026 6.22189 3.52435 6.24032 3.32474C6.27103 3.00229 6.12976 2.72284 5.86259 2.56622C5.74282 2.49559 5.66912 2.47716 5.46029 2.46795L5.20541 2.45259V2.05951V1.66336H5.38966C5.54628 1.66336 5.58927 1.65108 5.65069 1.58659C5.72747 1.51288 5.72747 1.50981 5.72747 0.889482C5.7244 0.23844 5.71825 0.204659 5.58313 0.134027C5.534 0.106389 4.84611 0.0971766 2.96361 0.0971766H0.408584L0.319526 0.186234ZM5.20541 0.880268V1.1413H2.97897H0.75253V0.880268V0.619238H2.97897H5.20541V0.880268ZM4.68334 4.67289V7.68242H2.97897H1.27459V4.67289V1.66336H2.97897H4.68334V4.67289ZM5.64762 3.06371C5.69983 3.11899 5.72747 3.17734 5.72747 3.24183C5.7244 3.41687 5.60156 3.50593 5.36202 3.50593H5.20541V3.2449V2.98387H5.38659C5.54014 2.98387 5.57699 2.99615 5.64762 3.06371ZM15.2597 7.20335C15.3948 7.25863 15.4532 7.39989 15.401 7.52887C15.3795 7.58108 15.3365 7.63636 15.3058 7.65171C15.272 7.67014 13.5737 7.68242 10.7515 7.68242H6.24953V7.44289C6.24953 7.31083 6.25874 7.19107 6.27103 7.18186C6.28024 7.16957 8.28557 7.16036 10.7239 7.16036C14.4183 7.16036 15.1737 7.1665 15.2597 7.20335ZM5.50636 8.49622C5.64148 9.42672 6.20961 10.3296 7.06333 10.9683C7.31822 11.1587 7.89863 11.472 8.18116 11.5702L8.34699 11.6286L8.32856 12.381C8.29478 13.6646 8.16273 14.3034 7.76965 15.0834L7.66217 15.2984H6.32323C5.06414 15.2984 4.98737 15.2953 5.00272 15.2431C5.09485 14.9114 5.1317 13.6984 5.058 13.2808C5.00579 12.9675 4.88296 12.5898 4.73862 12.3042C4.50216 11.8282 4.149 11.4382 3.4089 10.8486C2.79471 10.3572 2.61045 10.1852 2.39856 9.90272C2.09761 9.50349 1.93177 9.11655 1.86114 8.66205C1.84272 8.53614 1.81815 8.38874 1.80894 8.33346L1.79358 8.23519H3.63308H5.46951L5.50636 8.49622ZM14.8666 8.37953C14.8021 8.8371 14.5534 9.42979 14.2678 9.80137C13.9269 10.2528 13.3434 10.7196 12.8336 10.9561C12.5419 11.0912 12.1058 11.2294 11.7772 11.2939C11.4271 11.3583 9.97459 11.3891 9.49552 11.3399C7.96926 11.1802 6.7286 10.3204 6.21575 9.06435C6.14205 8.88316 6.06527 8.58221 6.02535 8.31811L6.01307 8.23519H10.4506H14.885L14.8666 8.37953ZM10.4107 11.8712C11.3842 11.8743 11.6943 11.8558 11.9707 11.7791C12.0198 11.7637 12.0229 11.7975 12.0229 12.1875C12.0229 13.3667 12.1672 14.2328 12.4866 14.9729C12.5573 15.1387 12.6064 15.2769 12.6003 15.2861C12.591 15.2922 11.6175 15.2953 10.4322 15.2922L8.27943 15.283L8.38077 15.0527C8.70322 14.3249 8.85983 13.4896 8.85983 12.4885C8.85983 12.2182 8.86905 11.948 8.87826 11.8865L8.89669 11.776L9.13315 11.8221C9.31126 11.8589 9.61529 11.8681 10.4107 11.8712Z" fill="#797979"/>
</g>
<defs>
<clipPath id="clip0_18_732">
<rect width="15.7233" height="15.7233" fill="white" transform="translate(0.230469 0.0970459)"/>
</clipPath>
</defs>
</svg>
