<svg width="23" height="16" viewBox="0 0 23 16" fill="none" xmlns="http://www.w3.org/2000/svg">
<path d="M3.23399 0.130445C3.02405 0.184048 2.6399 0.40739 2.51929 0.550328C2.45676 0.626265 2.35402 0.78707 2.28702 0.912142L2.16641 1.13995L2.15301 4.36054L2.13961 7.58559L1.92967 7.61686C1.66613 7.65259 1.23731 7.8804 1.08991 8.05461C1.02737 8.12608 0.924635 8.29135 0.857632 8.41642L0.737028 8.64423L0.723627 10.2612L0.710227 11.8827H0.464551C0.263543 11.8827 0.201008 11.9006 0.111671 11.9944C0 12.1016 0 12.1105 0 12.9547C0 13.799 0 13.8079 0.111671 13.9151C0.201008 14.0089 0.263543 14.0268 0.469018 14.0268H0.714694V14.8085C0.714694 15.5812 0.714694 15.5946 0.826364 15.7018C0.929102 15.809 0.951436 15.8135 1.60806 15.8135C2.48803 15.8135 2.42996 15.8671 2.63543 14.8174L2.78731 14.0268H11.0778H19.3682L19.5201 14.8219C19.7255 15.8671 19.6675 15.8135 20.5474 15.8135C21.2041 15.8135 21.2264 15.809 21.3291 15.7018C21.4408 15.5946 21.4408 15.5812 21.4408 14.8085V14.0268H21.6865C21.892 14.0268 21.9545 14.0089 22.0438 13.9151C22.1555 13.8079 22.1555 13.799 22.1555 12.9547C22.1555 12.1105 22.1555 12.1016 22.0438 11.9944C21.9545 11.9006 21.892 11.8827 21.691 11.8827H21.4453L21.4319 10.2657L21.4185 8.64423L21.2666 8.36282C21.1817 8.20648 21.0522 8.03228 20.9807 7.96974C20.7797 7.8 20.4581 7.65259 20.2258 7.61686L20.0159 7.58559L20.0025 4.36054L19.9891 1.13995L19.8372 0.85854C19.6675 0.545861 19.529 0.411856 19.1895 0.233183L18.9617 0.112578L11.1671 0.103644C6.87893 0.103644 3.30992 0.112578 3.23399 0.130445ZM18.8679 0.867474C18.9483 0.903208 19.0734 1.00595 19.1449 1.09975L19.2744 1.26502L19.2878 4.43201L19.2967 7.59453H18.9438H18.591L18.5731 6.68776C18.5597 5.81226 18.5552 5.78099 18.4391 5.55765C18.2604 5.21817 18.1264 5.0797 17.8137 4.90996L17.5323 4.75809H15.0086H12.4848L12.257 4.87869C11.9175 5.05736 11.779 5.19137 11.6093 5.50405L11.4574 5.78546L11.444 6.68776L11.4262 7.59453H11.0778H10.7293L10.7115 6.68776C10.6981 5.81226 10.6936 5.78099 10.5775 5.55765C10.3988 5.21817 10.2648 5.0797 9.95211 4.90996L9.6707 4.75809H7.14694H4.62317L4.39537 4.87869C4.05589 5.05736 3.91741 5.19137 3.74767 5.50405L3.5958 5.78546L3.5824 6.68776L3.56453 7.59453H3.21165H2.85877V4.49454C2.85877 2.40406 2.87217 1.34989 2.90791 1.26502C2.97045 1.09975 3.11785 0.938943 3.28312 0.867474C3.4886 0.778136 18.649 0.778136 18.8679 0.867474ZM9.57689 5.51298C9.6573 5.54872 9.78237 5.65145 9.85384 5.74526L9.98338 5.91053L9.99678 6.75476L10.0102 7.59453H7.1514H4.28816V6.8173C4.28816 6.0088 4.31496 5.86139 4.48024 5.67825C4.68571 5.45491 4.68571 5.45491 7.138 5.45045C8.99621 5.45045 9.45629 5.46385 9.57689 5.51298ZM17.4385 5.51298C17.5189 5.54872 17.644 5.65145 17.7155 5.74526L17.845 5.91053L17.8584 6.75476L17.8718 7.59453H15.013H12.1498V6.8173C12.1498 6.0088 12.1766 5.86139 12.3419 5.67825C12.5473 5.45491 12.5473 5.45491 14.9996 5.45045C16.8578 5.45045 17.3179 5.46385 17.4385 5.51298ZM20.2973 8.37175C20.3777 8.40749 20.5028 8.51023 20.5742 8.60403L20.7038 8.7693L20.7172 10.3282L20.7306 11.8827H11.0778H1.42939V10.3908C1.42939 8.84077 1.43832 8.73804 1.62146 8.53703C1.84034 8.30029 1.30432 8.31369 11.0688 8.30922C18.7339 8.30922 20.1722 8.31815 20.2973 8.37175ZM21.4408 12.9547V13.3121H11.0778H0.714694V12.9547V12.5974H11.0778H21.4408V12.9547ZM2.04134 14.1474C2.02794 14.2188 1.98327 14.4601 1.93861 14.6834L1.8582 15.0988H1.6438H1.42939V14.5628V14.0268H1.74653H2.06814L2.04134 14.1474ZM20.7261 14.5628V15.0988H20.5117H20.2973L20.2169 14.6834C20.1722 14.4601 20.1276 14.2188 20.1142 14.1474L20.0918 14.0268H20.409H20.7261V14.5628Z" fill="#797979"/>
</svg>
