<svg width="18" height="18" viewBox="0 0 18 18" fill="none" xmlns="http://www.w3.org/2000/svg">
<g clip-path="url(#clip0_3_2600)">
<path opacity="0.3" d="M16.5061 6.74804L9.19257 1.50392C8.9591 1.3408 8.64396 1.33898 8.40785 1.50392L1.09434 6.74804C0.356262 7.27725 -0.445462 6.16151 0.293714 5.63149L7.61007 0.385366C7.61169 0.384198 7.6133 0.383065 7.61495 0.381897C8.32112 -0.11526 9.27112 -0.1211 9.98557 0.381897C9.98718 0.38303 9.98883 0.384198 9.99044 0.385366L17.3067 5.63149C18.0474 6.16258 17.2378 7.27272 16.5061 6.74804V6.74804Z" fill="white"/>
<path d="M14.1585 17.5931H10.1741C9.79473 17.5931 9.48718 17.2856 9.48718 16.9062V14.1583C9.48718 13.7795 9.17901 13.4713 8.80021 13.4713C8.42142 13.4713 8.11325 13.7795 8.11325 14.1583V16.9062C8.11325 17.2856 7.80569 17.5931 7.42628 17.5931H3.44188C2.3055 17.5931 1.38098 16.6686 1.38098 15.5322V9.37039C1.38098 8.70211 1.70653 8.0734 2.25202 7.68767L7.60826 3.82115C7.61046 3.81954 7.61269 3.81796 7.61496 3.81638C8.32112 3.31936 9.27096 3.31348 9.98547 3.81638C9.9877 3.81796 9.98994 3.81954 9.99217 3.82115L15.3484 7.68771C15.8939 8.07344 16.2195 8.70215 16.2195 9.37043V15.5323C16.2194 16.6686 15.2949 17.5931 14.1585 17.5931ZM10.8611 16.2192H14.1585C14.5373 16.2192 14.8455 15.911 14.8455 15.5322V9.37039C14.8455 9.14713 14.7365 8.93713 14.5539 8.80863C14.5517 8.80705 14.5495 8.80547 14.5472 8.80385L9.19196 4.93802C8.95835 4.77528 8.64393 4.77401 8.40847 4.93802L3.05319 8.80385C3.051 8.80543 3.04876 8.80705 3.0465 8.80863C2.86393 8.93713 2.75491 9.14713 2.75491 9.37039V15.5322C2.75491 15.911 3.06309 16.2192 3.44188 16.2192H6.73932V14.1583C6.73932 13.0219 7.66383 12.0974 8.80021 12.0974C9.93659 12.0974 10.8611 13.0219 10.8611 14.1583V16.2192Z" fill="white"/>
</g>
<defs>
<clipPath id="clip0_3_2600">
<rect width="17.6" height="17.6" fill="white"/>
</clipPath>
</defs>
</svg>
