<svg width="21" height="20" viewBox="0 0 21 20" fill="none" xmlns="http://www.w3.org/2000/svg">
<g clip-path="url(#clip0_272_5222)">
<path d="M17.8668 3.84148C17.4412 3.41565 16.9358 3.07785 16.3796 2.84738C15.8234 2.61691 15.2272 2.49829 14.6251 2.49829C14.023 2.49829 13.4269 2.61691 12.8707 2.84738C12.3144 3.07785 11.8091 3.41565 11.3835 3.84148L10.5001 4.72481L9.61679 3.84148C8.75704 2.98174 7.59098 2.49874 6.37512 2.49874C5.15926 2.49874 3.9932 2.98174 3.13345 3.84148C2.27371 4.70122 1.79071 5.86728 1.79071 7.08315C1.79071 8.29901 2.27371 9.46507 3.13345 10.3248L4.01679 11.2081L10.5001 17.6915L16.9835 11.2081L17.8668 10.3248C18.2926 9.89918 18.6304 9.39382 18.8609 8.83761C19.0914 8.28139 19.21 7.68522 19.21 7.08315C19.21 6.48107 19.0914 5.8849 18.8609 5.32868C18.6304 4.77247 18.2926 4.26711 17.8668 3.84148V3.84148Z" stroke="#4c49b1" stroke-width="2" stroke-linecap="round" stroke-linejoin="round"/>
</g>
<defs>
<clipPath id="clip0_272_5222">
<rect width="20" height="20" fill="white" transform="translate(0.5)"/>
</clipPath>
</defs>
</svg>
