<svg width="20" height="20" viewBox="0 0 20 20" fill="none" xmlns="http://www.w3.org/2000/svg">
<g clip-path="url(#clip0_309_3728)">
<path d="M16.6667 18.3337C17.1269 18.3337 17.5 17.9606 17.5 17.5003C17.5 17.0401 17.1269 16.667 16.6667 16.667C16.2064 16.667 15.8333 17.0401 15.8333 17.5003C15.8333 17.9606 16.2064 18.3337 16.6667 18.3337Z" stroke="#4c49b1" stroke-width="2" stroke-linecap="round" stroke-linejoin="round"/>
<path d="M7.49999 18.3337C7.96023 18.3337 8.33332 17.9606 8.33332 17.5003C8.33332 17.0401 7.96023 16.667 7.49999 16.667C7.03975 16.667 6.66666 17.0401 6.66666 17.5003C6.66666 17.9606 7.03975 18.3337 7.49999 18.3337Z" stroke="#4c49b1" stroke-width="2" stroke-linecap="round" stroke-linejoin="round"/>
<path d="M0.833344 0.833008H4.16668L6.40001 11.9913C6.47621 12.375 6.68493 12.7196 6.98963 12.9649C7.29433 13.2102 7.67559 13.3405 8.06668 13.333H16.1667C16.5578 13.3405 16.939 13.2102 17.2437 12.9649C17.5484 12.7196 17.7571 12.375 17.8333 11.9913L19.1667 4.99967H5.00001" stroke="#4c49b1" stroke-width="2" stroke-linecap="round" stroke-linejoin="round"/>
</g>
<defs>
<clipPath id="clip0_309_3728">
<rect width="20" height="20" fill="white"/>
</clipPath>
</defs>
</svg>
