<svg width="384" height="80" viewBox="0 0 384 80" fill="none" xmlns="http://www.w3.org/2000/svg">
<path d="M43.6767 12.4238C46.3814 12.4238 48.7692 12.9732 50.8399 14.072C52.953 15.1285 54.6012 16.7767 55.7845 19.0165C57.01 21.2141 57.6228 24.0456 57.6228 27.511V47.0355H47.7338V29.0324C47.7338 26.2854 47.1632 24.2569 46.0222 22.9468C44.8811 21.6367 43.2752 20.9817 41.2044 20.9817C39.7676 20.9817 38.4786 21.3198 37.3376 21.9959C36.1965 22.6298 35.309 23.6018 34.6751 24.9119C34.0412 26.222 33.7243 27.8913 33.7243 29.9199V47.0355H23.8352V29.0324C23.8352 26.2854 23.2647 24.2569 22.1236 22.9468C21.0248 21.6367 19.44 20.9817 17.3693 20.9817C15.9324 20.9817 14.6434 21.3198 13.5024 21.9959C12.3613 22.6298 11.4739 23.6018 10.8399 24.9119C10.206 26.222 9.88907 27.8913 9.88907 29.9199V47.0355H0V12.931H9.44533V22.2495L7.67036 19.5237C8.85367 17.1993 10.523 15.4455 12.6783 14.2622C14.8759 13.0366 17.3693 12.4238 20.1585 12.4238C23.2858 12.4238 26.0116 13.2268 28.336 14.8327C30.7026 16.3964 32.2662 18.8052 33.0269 22.0593L29.5404 21.1085C30.6815 18.446 32.4987 16.333 34.9921 14.7693C37.5277 13.2057 40.4226 12.4238 43.6767 12.4238Z" fill="#B744B8"/>
<path d="M70.8122 59.8406C69.0372 59.8406 67.2834 59.5659 65.5507 59.0165C63.818 58.4671 62.4023 57.7064 61.3035 56.7344L64.9168 49.698C65.6775 50.3742 66.5438 50.9024 67.5158 51.2828C68.5301 51.6631 69.5232 51.8533 70.4952 51.8533C71.8899 51.8533 72.9886 51.5152 73.7916 50.839C74.6368 50.2051 75.3975 49.1275 76.0737 47.6061L77.8487 43.4222L78.6093 42.3446L90.8439 12.931H100.353L84.9485 49.1275C83.8497 51.8744 82.5819 54.0297 81.145 55.5934C79.7504 57.1571 78.1867 58.2558 76.454 58.8898C74.7636 59.5237 72.883 59.8406 70.8122 59.8406ZM76.6442 48.3668L61.4303 12.931H71.6363L83.4271 41.4571L76.6442 48.3668Z" fill="#B744B8"/>
<path d="M106.719 47.5427C105.029 47.5427 103.571 46.9722 102.345 45.8311C101.162 44.6478 100.57 43.1475 100.57 41.3303C100.57 39.5131 101.162 38.0551 102.345 36.9563C103.571 35.8153 105.029 35.2447 106.719 35.2447C108.452 35.2447 109.91 35.8153 111.093 36.9563C112.276 38.0551 112.868 39.5131 112.868 41.3303C112.868 43.1475 112.276 44.6478 111.093 45.8311C109.91 46.9722 108.452 47.5427 106.719 47.5427Z" fill="#B744B8"/>
<path d="M124.755 46.5293C127.46 47.2055 130.27 47.5436 133.186 47.5436C136.609 47.5436 139.504 47.0787 141.871 46.149C144.28 45.2192 146.118 43.9514 147.386 42.3455C148.654 40.6973 149.288 38.8167 149.288 36.7036C149.288 34.7596 148.907 33.196 148.147 32.0127C147.386 30.7871 146.393 29.8362 145.167 29.1601C143.984 28.4416 142.653 27.8922 141.174 27.5119C139.694 27.1315 138.215 26.8568 136.736 26.6878C135.299 26.4765 133.968 26.2441 132.742 25.9905C131.517 25.7369 130.524 25.3988 129.763 24.9762C129.045 24.5536 128.685 23.9197 128.685 23.0745C128.685 22.1447 129.193 21.384 130.207 20.7924C131.221 20.2007 132.827 19.9049 135.025 19.9049C136.588 19.9049 138.194 20.0951 139.842 20.4754C141.533 20.8135 143.202 21.4686 144.85 22.4406L148.147 15.4041C146.541 14.4321 144.533 13.6926 142.124 13.1854C139.716 12.6783 137.349 12.4247 135.025 12.4247C131.728 12.4247 128.897 12.9107 126.53 13.8827C124.164 14.8125 122.346 16.1014 121.078 17.7496C119.853 19.3978 119.24 21.2995 119.24 23.4548C119.24 25.3988 119.599 26.9836 120.318 28.2092C121.078 29.4348 122.072 30.4068 123.297 31.1252C124.523 31.8436 125.875 32.393 127.354 32.7734C128.833 33.1115 130.291 33.3862 131.728 33.5975C133.207 33.8088 134.56 34.0201 135.785 34.2314C137.011 34.4427 137.983 34.7596 138.701 35.1823C139.462 35.5626 139.842 36.1543 139.842 36.9572C139.842 37.9292 139.356 38.6899 138.384 39.2393C137.455 39.7887 135.849 40.0634 133.567 40.0634C131.496 40.0634 129.383 39.7676 127.227 39.1759C125.114 38.542 123.276 37.739 121.712 36.767L118.416 43.8669C119.98 44.9234 122.093 45.8109 124.755 46.5293Z" fill="#0B040B"/>
<path d="M183.979 14.0729C181.866 12.9741 179.457 12.4247 176.752 12.4247C173.836 12.4247 171.237 13.0375 168.955 14.2631C167.807 14.8796 166.793 15.6297 165.912 16.5135V0H156.023V47.0365H165.912V30.1743C165.912 28.0613 166.25 26.3286 166.926 24.9762C167.645 23.6239 168.617 22.6307 169.842 21.9968C171.11 21.3207 172.526 20.9826 174.09 20.9826C176.287 20.9826 177.978 21.6376 179.161 22.9477C180.386 24.2578 180.999 26.2863 180.999 29.0333V47.0365H190.888V27.5119C190.888 24.0465 190.275 21.215 189.05 19.0174C187.824 16.7776 186.134 15.1294 183.979 14.0729Z" fill="#0B040B"/>
<path fill-rule="evenodd" clip-rule="evenodd" d="M207.263 45.2615C210.095 46.7829 213.328 47.5436 216.962 47.5436C220.554 47.5436 223.766 46.7829 226.597 45.2615C229.429 43.7401 231.648 41.6693 233.254 39.0491C234.859 36.3867 235.662 33.365 235.662 29.9842C235.662 26.5188 234.859 23.476 233.254 20.8558C231.648 18.2356 229.429 16.1859 226.597 14.7068C223.766 13.1854 220.554 12.4247 216.962 12.4247C213.328 12.4247 210.095 13.1854 207.263 14.7068C204.474 16.1859 202.255 18.2567 200.607 20.9192C199.001 23.5394 198.198 26.561 198.198 29.9842C198.198 33.365 199.001 36.3867 200.607 39.0491C202.255 41.6693 204.474 43.7401 207.263 45.2615ZM221.399 38.2884C220.089 39.0491 218.61 39.4295 216.962 39.4295C215.314 39.4295 213.835 39.0491 212.525 38.2884C211.214 37.5277 210.158 36.4501 209.355 35.0555C208.594 33.6186 208.214 31.9282 208.214 29.9842C208.214 27.9979 208.594 26.3075 209.355 24.9128C210.158 23.5182 211.214 22.4406 212.525 21.6799C213.835 20.9192 215.314 20.5388 216.962 20.5388C218.61 20.5388 220.089 20.9192 221.399 21.6799C222.709 22.4406 223.745 23.5182 224.506 24.9128C225.266 26.3075 225.647 27.9979 225.647 29.9842C225.647 31.9282 225.266 33.6186 224.506 35.0555C223.745 36.4501 222.709 37.5277 221.399 38.2884Z" fill="#0B040B"/>
<path fill-rule="evenodd" clip-rule="evenodd" d="M255.521 45.6418C257.677 46.9097 260.191 47.5436 263.065 47.5436C266.277 47.5436 269.15 46.8251 271.686 45.3883C274.264 43.9514 276.293 41.9229 277.772 39.3027C279.293 36.6825 280.054 33.5763 280.054 29.9842C280.054 26.4342 279.293 23.3492 277.772 20.729C276.293 18.1088 274.264 16.0803 271.686 14.6434C269.15 13.1643 266.277 12.4247 263.065 12.4247C260.064 12.4247 257.486 13.0586 255.331 14.3265C254.198 14.9931 253.205 15.841 252.352 16.8699V12.9319H242.906V59.3344H252.795V43.4257C253.602 44.3085 254.51 45.0472 255.521 45.6418ZM265.727 38.2884C264.459 39.0491 263.001 39.4295 261.353 39.4295C259.705 39.4295 258.226 39.0491 256.916 38.2884C255.606 37.5277 254.57 36.4501 253.81 35.0555C253.049 33.6186 252.669 31.9282 252.669 29.9842C252.669 27.9979 253.049 26.3075 253.81 24.9128C254.57 23.5182 255.606 22.4406 256.916 21.6799C258.226 20.9192 259.705 20.5388 261.353 20.5388C263.001 20.5388 264.459 20.9192 265.727 21.6799C267.037 22.4406 268.073 23.5182 268.834 24.9128C269.636 26.3075 270.038 27.9979 270.038 29.9842C270.038 31.9282 269.636 33.6186 268.834 35.0555C268.073 36.4501 267.037 37.5277 265.727 38.2884Z" fill="#0B040B"/>
<path fill-rule="evenodd" clip-rule="evenodd" d="M299.923 45.6418C302.078 46.9097 304.592 47.5436 307.466 47.5436C310.678 47.5436 313.552 46.8251 316.087 45.3883C318.665 43.9514 320.694 41.9229 322.173 39.3027C323.694 36.6825 324.455 33.5763 324.455 29.9842C324.455 26.4342 323.694 23.3492 322.173 20.729C320.694 18.1088 318.665 16.0803 316.087 14.6434C313.552 13.1643 310.678 12.4247 307.466 12.4247C304.466 12.4247 301.888 13.0586 299.732 14.3265C298.599 14.9931 297.606 15.841 296.753 16.8699V12.9319H287.308V59.3344H297.197V43.4257C298.003 44.3085 298.912 45.0472 299.923 45.6418ZM310.129 38.2884C308.861 39.0491 307.403 39.4295 305.755 39.4295C304.106 39.4295 302.627 39.0491 301.317 38.2884C300.007 37.5277 298.972 36.4501 298.211 35.0555C297.45 33.6186 297.07 31.9282 297.07 29.9842C297.07 27.9979 297.45 26.3075 298.211 24.9128C298.972 23.5182 300.007 22.4406 301.317 21.6799C302.627 20.9192 304.106 20.5388 305.755 20.5388C307.403 20.5388 308.861 20.9192 310.129 21.6799C311.439 22.4406 312.474 23.5182 313.235 24.9128C314.038 26.3075 314.439 27.9979 314.439 29.9842C314.439 31.9282 314.038 33.6186 313.235 35.0555C312.474 36.4501 311.439 37.5277 310.129 38.2884Z" fill="#0B040B"/>
<path fill-rule="evenodd" clip-rule="evenodd" d="M338.365 45.2615C341.323 46.7829 344.746 47.5436 348.634 47.5436C351.719 47.5436 354.445 47.0787 356.812 46.149C359.179 45.177 361.144 43.8035 362.707 42.0285L357.446 36.3233C356.305 37.4221 355.037 38.2462 353.642 38.7956C352.29 39.345 350.705 39.6197 348.888 39.6197C346.859 39.6197 345.084 39.2604 343.563 38.542C342.084 37.7813 340.922 36.7036 340.077 35.309C339.639 34.5265 339.321 33.6813 339.122 32.7734H364.926C364.968 32.3508 365.011 31.907 365.053 31.4422C365.095 30.935 365.116 30.4913 365.116 30.1109C365.116 26.4342 364.334 23.2858 362.771 20.6656C361.207 18.0032 359.073 15.9746 356.368 14.58C353.706 13.1432 350.705 12.4247 347.367 12.4247C343.901 12.4247 340.795 13.1854 338.048 14.7068C335.301 16.1859 333.125 18.2567 331.519 20.9192C329.955 23.5394 329.173 26.561 329.173 29.9842C329.173 33.365 329.976 36.3867 331.582 39.0491C333.188 41.6693 335.449 43.7401 338.365 45.2615ZM339.008 27.0048C339.172 25.9483 339.486 24.9974 339.95 24.1521C340.668 22.7998 341.661 21.7644 342.929 21.046C344.239 20.2853 345.74 19.9049 347.43 19.9049C349.12 19.9049 350.6 20.2853 351.867 21.046C353.135 21.7644 354.128 22.7787 354.847 24.0888C355.324 24.9583 355.642 25.9303 355.803 27.0048H339.008Z" fill="#0B040B"/>
<path d="M372.24 49.5721L383.392 58.0452C372.329 74.5206 340.452 97.406 309.858 58.9947L320.289 49.5721C328.707 59.9281 349.777 76.7928 372.24 49.5721Z" fill="#0B040B"/>
</svg>
