<svg width="64" height="64" viewBox="0 0 64 64" fill="none" xmlns="http://www.w3.org/2000/svg">
<circle cx="32" cy="32" r="31.5" fill="white" stroke="#0AC09F"/>
<circle cx="32" cy="32" r="28" fill="#0AC09F"/>
<path d="M39.3734 26.36C39.2801 26.3467 39.1867 26.3467 39.0934 26.36C37.0267 26.2933 35.3867 24.6 35.3867 22.52C35.3867 20.4 37.1067 18.6667 39.2401 18.6667C41.3601 18.6667 43.0934 20.3867 43.0934 22.52C43.0801 24.6 41.4401 26.2933 39.3734 26.36Z" fill="white"/>
<path d="M43.72 35.6C42.2266 36.6 40.1333 36.9733 38.2 36.72C38.7066 35.6267 38.9733 34.4133 38.9866 33.1333C38.9866 31.8 38.6933 30.5333 38.1333 29.4267C40.1066 29.16 42.2 29.5333 43.7066 30.5333C45.8133 31.92 45.8133 34.2 43.72 35.6Z" fill="white"/>
<path d="M24.5867 26.36C24.68 26.3467 24.7733 26.3467 24.8667 26.36C26.9333 26.2933 28.5733 24.6 28.5733 22.52C28.5733 20.3867 26.8533 18.6667 24.72 18.6667C22.6 18.6667 20.88 20.3867 20.88 22.52C20.88 24.6 22.52 26.2933 24.5867 26.36Z" fill="white"/>
<path d="M24.7334 33.1333C24.7334 34.4267 25.0134 35.6533 25.52 36.76C23.64 36.96 21.68 36.56 20.24 35.6133C18.1334 34.2133 18.1334 31.9333 20.24 30.5333C21.6667 29.5733 23.68 29.1867 25.5734 29.4C25.0267 30.52 24.7334 31.7867 24.7334 33.1333Z" fill="white"/>
<path d="M32.16 37.16C32.0534 37.1467 31.9334 37.1467 31.8134 37.16C29.36 37.08 27.4 35.0667 27.4 32.5867C27.4134 30.0533 29.4534 28 32 28C34.5334 28 36.5867 30.0533 36.5867 32.5867C36.5734 35.0667 34.6267 37.08 32.16 37.16Z" fill="white"/>
<path d="M27.8267 39.92C25.8133 41.2667 25.8133 43.48 27.8267 44.8133C30.12 46.3467 33.88 46.3467 36.1733 44.8133C38.1867 43.4667 38.1867 41.2533 36.1733 39.92C33.8933 38.3867 30.1333 38.3867 27.8267 39.92Z" fill="white"/>
<path d="M40 48C40 43.5817 43.5817 40 48 40H56C60.4183 40 64 43.5817 64 48V56C64 60.4183 60.4183 64 56 64H48C43.5817 64 40 60.4183 40 56V48Z" fill="#029278"/>
<path d="M57.1934 53.9533C55.8201 55.32 53.8534 55.74 52.1267 55.2L48.9867 58.3333C48.7601 58.5667 48.3134 58.7067 47.9934 58.66L46.5401 58.46C46.0601 58.3933 45.6134 57.94 45.5401 57.46L45.3401 56.0067C45.2934 55.6867 45.4467 55.24 45.6667 55.0133L48.8001 51.88C48.2667 50.1467 48.6801 48.18 50.0534 46.8133C52.0201 44.8467 55.2134 44.8467 57.1867 46.8133C59.1601 48.78 59.1601 51.9867 57.1934 53.9533Z" fill="white"/>
<path d="M48.5934 55.66L50.1267 57.1933" stroke="#0AC09F" stroke-width="2" stroke-miterlimit="10" stroke-linecap="round" stroke-linejoin="round"/>
<path d="M53.6666 51.3333C54.2189 51.3333 54.6666 50.8856 54.6666 50.3333C54.6666 49.7811 54.2189 49.3333 53.6666 49.3333C53.1143 49.3333 52.6666 49.7811 52.6666 50.3333C52.6666 50.8856 53.1143 51.3333 53.6666 51.3333Z" fill="#7065F0" stroke="#0AC09F" stroke-width="2" stroke-linecap="round" stroke-linejoin="round"/>
</svg>
