<svg width="64" height="64" viewBox="0 0 64 64" fill="none" xmlns="http://www.w3.org/2000/svg">
<circle cx="32" cy="32" r="31.5" fill="white" stroke="#00DEB6"/>
<circle cx="32" cy="32" r="28" fill="#0AC09F"/>
<g clip-path="url(#clip0_1_1007)">
<path fill-rule="evenodd" clip-rule="evenodd" d="M18.6666 32H21.6295V42.3704C21.6295 43.1562 21.9417 43.9099 22.4973 44.4655C23.053 45.0212 23.8067 45.3334 24.5925 45.3334H39.4073C40.1931 45.3334 40.9468 45.0212 41.5024 44.4655C42.0581 43.9099 42.3703 43.1562 42.3703 42.3704V32H42.3703H45.3333L32 18.6667L18.6666 32Z" fill="white"/>
<path d="M21.6295 32H22.6295C22.6295 31.4477 22.1818 31 21.6295 31V32ZM18.6666 32L17.9595 31.2929C17.6735 31.5789 17.588 32.009 17.7427 32.3827C17.8975 32.7564 18.2622 33 18.6666 33V32ZM22.4973 44.4655L23.2045 43.7584L22.4973 44.4655ZM41.5024 44.4655L40.7953 43.7584L40.7953 43.7584L41.5024 44.4655ZM42.3703 32V31C41.818 31 41.3703 31.4477 41.3703 32H42.3703ZM45.3333 32V33C45.7378 33 46.1024 32.7564 46.2572 32.3827C46.412 32.009 46.3264 31.5789 46.0404 31.2929L45.3333 32ZM32 18.6667L32.7071 17.9596C32.3165 17.5691 31.6834 17.5691 31.2929 17.9596L32 18.6667ZM21.6295 31H18.6666V33H21.6295V31ZM20.6295 32V42.3704H22.6295V32H20.6295ZM20.6295 42.3704C20.6295 43.4214 21.047 44.4294 21.7902 45.1726L23.2045 43.7584C22.8363 43.3903 22.6295 42.891 22.6295 42.3704H20.6295ZM21.7902 45.1726C22.5334 45.9158 23.5414 46.3334 24.5925 46.3334V44.3334C24.0719 44.3334 23.5726 44.1265 23.2045 43.7584L21.7902 45.1726ZM24.5925 46.3334H39.4073V44.3334H24.5925V46.3334ZM39.4073 46.3334C40.4583 46.3334 41.4663 45.9158 42.2095 45.1726L40.7953 43.7584C40.4272 44.1265 39.9279 44.3334 39.4073 44.3334V46.3334ZM42.2095 45.1726C42.9527 44.4294 43.3703 43.4214 43.3703 42.3704H41.3703C41.3703 42.891 41.1634 43.3903 40.7953 43.7584L42.2095 45.1726ZM43.3703 42.3704V32H41.3703V42.3704H43.3703ZM42.3703 31H42.3703V33H42.3703V31ZM45.3333 31H42.3703V33H45.3333V31ZM31.2929 19.3738L44.6262 32.7071L46.0404 31.2929L32.7071 17.9596L31.2929 19.3738ZM19.3737 32.7071L32.7071 19.3738L31.2929 17.9596L17.9595 31.2929L19.3737 32.7071Z" fill="white"/>
<path d="M28 34.0002L30.6667 36.6668L36 31.3335" stroke="#029278" stroke-width="2" stroke-linecap="round" stroke-linejoin="round"/>
</g>
<path d="M40 40H64V52C64 58.6274 58.6274 64 52 64C45.3726 64 40 58.6274 40 52V40Z" fill="#029278"/>
<path d="M56.36 46.78L52.6934 45.4067C52.3134 45.2667 51.6934 45.2667 51.3134 45.4067L47.6467 46.78C46.94 47.0467 46.3667 47.8734 46.3667 48.6267V54.0267C46.3667 54.5667 46.72 55.28 47.1534 55.6L50.82 58.34C51.4667 58.8267 52.5267 58.8267 53.1734 58.34L56.84 55.6C57.2734 55.2734 57.6267 54.5667 57.6267 54.0267V48.6267C57.6334 47.8734 57.06 47.0467 56.36 46.78ZM52.5 52.58V54.3334C52.5 54.6067 52.2734 54.8334 52 54.8334C51.7267 54.8334 51.5 54.6067 51.5 54.3334V52.58C50.8267 52.3667 50.3334 51.74 50.3334 51C50.3334 50.08 51.08 49.3334 52 49.3334C52.92 49.3334 53.6667 50.08 53.6667 51C53.6667 51.7467 53.1734 52.3667 52.5 52.58Z" fill="white"/>
<defs>
<clipPath id="clip0_1_1007">
<rect width="32" height="32" fill="white" transform="translate(16 16)"/>
</clipPath>
</defs>
</svg>
